<svg viewBox="0 0 1254 1254" xmlns="http://www.w3.org/2000/svg" role="img" aria-label="Musonic logo"><rect width="1254" height="1254" rx="200" fill="#121212"/><path fill="#ff6b35" d="M373.5 947.6c48.6-9.9 89.1-44.2 100.8-85.5 2.2-7.6 2.2-7.6 2.7-193.6.5-174.5.6-186.3 2.3-191.2 7.1-20.8 28.7-25.6 52.2-11.5 6 3.6 25.2 17.4 54 38.7 20.5 15.2 42.8 31.3 50.1 36.4 25.8 17.5 56.7 20.1 82.7 7 10.8-5.4 7.2-2.8 84.3-61.1 47.2-35.6 61.1-40.5 76.8-26.6 10.9 9.5 10.6 5.4 10.6 153.1 0 126.6 0 126.6-17.3 126-91.2-3.3-168.9 66.6-146.4 131.7 31.7 92 205.7 59.8 223.6-41.4 2-10.9 1.4-499.9-.5-509.4-10.4-50.5-63.8-70.7-112.2-42.4-9.1 5.4-26.4 18.8-71 55.3-54.9 45.1-61.4 48.9-82.7 48.9-21.5 0-28.8-4.3-90.5-53-46.5-36.8-58.2-45.1-71.7-51.6-39.2-18.6-82.3-3.9-99.3 34-7 15.7-6.4-5.3-6.8 236.5-.2 217.4-.2 217.4-3 216.7-40-9.2-99 9.4-131.4 41.4-72 71.3-12.1 163 92.7 141.6"/></svg>
